<svg height="64" viewBox="0 0 300 300" width="64" xmlns="http://www.w3.org/2000/svg"><rect width="100%" height="100%" fill="#434190"/><path fill="#ffffff" d="m220.3 39.1c-24.2 4.1-45.8 26.1-59.3 60.6l-3.2 8.2-9-8c-13.1-11.5-19.4-14.8-32.2-16.9-15.7-2.5-33.8 5.8-40.9 18.8-8.4 15.4-4.8 30 11.6 47.9 9.1 10 11.2 13.9 10.2 19.2-2.1 11.4-15.7 16.6-27.5 10.6-6.3-3.2-7-5.5-3.6-12 1.4-2.6 2.6-6.4 2.6-8.4 0-8.3-6.6-14.7-14.3-13.7-13.2 1.6-14.3 21.6-1.9 32.8 11 9.9 30.9 14.6 45.3 10.8 16.5-4.5 27.9-17.7 27.9-32.5 0-9.9-4-17.5-17.6-33.1-9.8-11.2-11.4-15.7-7.9-22.3 4.1-8.1 12.2-10.6 23.3-7.2 7.5 2.2 11.9 5.1 23.2 15 4.1 3.6 7.7 6.7 7.9 6.8s-1 5.5-2.7 12c-2.9 11.1-4.1 16.8-10.7 51.3-7.1 36.5-13.6 54-24.2 65.1-6 6.3-13.5 10.2-18.6 9.7-4.8-.5-4.7-3.3.2-7.8 3.6-3.3 4.1-4.3 4.1-8.1 0-5.9-3-10.5-8.3-12.9-5.5-2.6-7.3-2.5-13.5.6-6.8 3.4-9.7 7.9-9.7 15.6 0 4.7.6 6.4 3 9.9 9.4 13.3 31.6 13.6 53.2.8 12.6-7.6 29.6-28.3 37.7-46.1 6.9-15.1 13-37.4 17.7-64.6l2.4-13.2h9.7c16.4 0 27.4-3.6 35.4-11.6 7.3-7.2 8.3-16.7 2.4-22.6-4.5-4.4-12.5-3.3-16.4 2.4-2.2 3-2 5.9.5 11.2 1.2 2.4 1.9 5.1 1.6 6-.4 1-3.3 2.9-6.4 4.3-4.9 2.2-7.3 2.7-15 2.7-5 .1-9.4-.2-9.7-.5-.4-.4.7-7.7 2.4-16.3 6.7-33.9 13-48.1 24.4-54.7 4-2.2 6.3-2.9 10.8-2.9 9 0 9.9 1.8 5.3 10.8-4.8 9.3 4.6 19.1 15.3 16.2 8.2-2.2 12.5-12.5 8.8-21.4-3.9-9.2-19.6-15-34.3-12.5z"/></svg>
